<svg width="39" height="37" viewBox="0 0 39 37" fill="none" xmlns="http://www.w3.org/2000/svg">
<path d="M27.6579 32.962C25.15 35.1348 22.128 36.4943 18.9399 36.8839C15.7519 37.2736 12.5273 36.6776 9.63733 35.1646C6.74741 33.6516 4.30965 31.2831 2.60468 28.3316C0.899713 25.3802 -0.00315637 21.9659 8.28771e-06 18.4818C0.00317295 14.9976 0.912243 11.5852 2.62257 8.63747C4.3329 5.68971 6.77496 3.32639 9.66762 1.81957C12.5603 0.31275 15.786 -0.276316 18.9733 0.120182C22.1607 0.516681 25.1802 1.88262 27.6842 4.06077L24.0527 8.98466C22.4025 7.54928 20.4127 6.64913 18.3123 6.38784C16.2118 6.12655 14.0861 6.51474 12.1799 7.50773C10.2736 8.50071 8.66434 10.0581 7.53724 12.0007C6.41015 13.9432 5.81108 16.1919 5.80899 18.488C5.80691 20.784 6.40189 23.034 7.52546 24.979C8.64902 26.9239 10.2555 28.4848 12.1599 29.4819C14.0644 30.4789 16.1893 30.8717 18.2903 30.6149C20.3912 30.3581 22.3826 29.4622 24.0354 28.0304L27.6579 32.962Z" fill="#FF8080"/>
<path d="M27.5963 6.65997C30.3974 6.65997 33.0838 7.9074 35.0645 10.1278C37.0452 12.3483 38.1579 15.3598 38.1579 18.5C38.1579 21.6401 37.0452 24.6517 35.0645 26.8721C33.0838 29.0925 30.3975 30.34 27.5964 30.34L27.5964 27.1316C29.6384 27.1316 31.5969 26.2222 33.0408 24.6035C34.4848 22.9847 35.296 20.7892 35.296 18.5C35.296 16.2107 34.4848 14.0152 33.0408 12.3965C31.5968 10.7777 29.6384 9.86833 27.5963 9.86833V6.65997Z" fill="#FF8080"/>
<ellipse cx="16.8644" cy="18.685" rx="8.00634" ry="8.695" fill="#FF8080"/>
<ellipse cx="30.3219" cy="18.5" rx="2.72556" ry="2.96" fill="#FF8080"/>
</svg>
